<mxfile host="Electron" modified="2024-02-22T10:52:19.255Z" agent="Mozilla/5.0 (Windows NT 10.0; Win64; x64) AppleWebKit/537.36 (KHTML, like Gecko) draw.io/22.1.18 Chrome/120.0.6099.199 Electron/28.1.2 Safari/537.36" etag="Js3EytFUfgiU4L4qu1PY" version="22.1.18" type="device">
  <diagram id="R2lEEEUBdFMjLlhIrx00" name="Page-1">
    <mxGraphModel dx="2524" dy="934" grid="1" gridSize="10" guides="1" tooltips="1" connect="1" arrows="1" fold="1" page="1" pageScale="1" pageWidth="850" pageHeight="1100" math="0" shadow="0" extFonts="Permanent Marker^https://fonts.googleapis.com/css?family=Permanent+Marker">
      <root>
        <mxCell id="0" />
        <mxCell id="1" parent="0" />
        <mxCell id="TbNyWr1KSkLtgO2NTrbU-1" value="Cliente" style="whiteSpace=wrap;html=1;align=center;" parent="1" vertex="1">
          <mxGeometry x="220" y="330" width="100" height="40" as="geometry" />
        </mxCell>
        <mxCell id="TbNyWr1KSkLtgO2NTrbU-2" value="Movimiento" style="whiteSpace=wrap;html=1;align=center;" parent="1" vertex="1">
          <mxGeometry x="522.5" y="542" width="100" height="40" as="geometry" />
        </mxCell>
        <mxCell id="TbNyWr1KSkLtgO2NTrbU-3" value="Cuenta" style="whiteSpace=wrap;html=1;align=center;" parent="1" vertex="1">
          <mxGeometry x="530" y="330" width="100" height="40" as="geometry" />
        </mxCell>
        <mxCell id="TbNyWr1KSkLtgO2NTrbU-4" value="Posee" style="shape=rhombus;perimeter=rhombusPerimeter;whiteSpace=wrap;html=1;align=center;" parent="1" vertex="1">
          <mxGeometry x="365" y="320" width="120" height="60" as="geometry" />
        </mxCell>
        <mxCell id="TbNyWr1KSkLtgO2NTrbU-5" value="" style="triangle;whiteSpace=wrap;html=1;rotation=90;" parent="1" vertex="1">
          <mxGeometry x="557.5" y="592" width="30" height="120" as="geometry" />
        </mxCell>
        <mxCell id="TbNyWr1KSkLtgO2NTrbU-7" value="Nombres" style="ellipse;whiteSpace=wrap;html=1;align=center;" parent="1" vertex="1">
          <mxGeometry x="90" y="300" width="90" height="30" as="geometry" />
        </mxCell>
        <mxCell id="TbNyWr1KSkLtgO2NTrbU-9" value="direccion" style="ellipse;whiteSpace=wrap;html=1;align=center;" parent="1" vertex="1">
          <mxGeometry x="140" y="220" width="90" height="30" as="geometry" />
        </mxCell>
        <mxCell id="TbNyWr1KSkLtgO2NTrbU-11" value="fecha_nacimiento" style="ellipse;whiteSpace=wrap;html=1;align=center;" parent="1" vertex="1">
          <mxGeometry x="195" y="180" width="105" height="30" as="geometry" />
        </mxCell>
        <mxCell id="TbNyWr1KSkLtgO2NTrbU-13" value="" style="endArrow=none;html=1;rounded=0;exitX=1.022;exitY=0.733;exitDx=0;exitDy=0;exitPerimeter=0;entryX=0;entryY=0.75;entryDx=0;entryDy=0;" parent="1" target="TbNyWr1KSkLtgO2NTrbU-1" edge="1">
          <mxGeometry relative="1" as="geometry">
            <mxPoint x="181.98000000000002" y="401.99" as="sourcePoint" />
            <mxPoint x="200" y="410" as="targetPoint" />
          </mxGeometry>
        </mxCell>
        <mxCell id="TbNyWr1KSkLtgO2NTrbU-14" value="" style="endArrow=none;html=1;rounded=0;entryX=0;entryY=0.75;entryDx=0;entryDy=0;" parent="1" source="TbNyWr1KSkLtgO2NTrbU-7" target="TbNyWr1KSkLtgO2NTrbU-1" edge="1">
          <mxGeometry relative="1" as="geometry">
            <mxPoint x="192" y="372" as="sourcePoint" />
            <mxPoint x="230" y="370" as="targetPoint" />
          </mxGeometry>
        </mxCell>
        <mxCell id="TbNyWr1KSkLtgO2NTrbU-15" value="" style="endArrow=none;html=1;rounded=0;entryX=0;entryY=0;entryDx=0;entryDy=0;exitX=1;exitY=1;exitDx=0;exitDy=0;" parent="1" target="TbNyWr1KSkLtgO2NTrbU-1" edge="1">
          <mxGeometry relative="1" as="geometry">
            <mxPoint x="186.81980515339455" y="285.6066017177982" as="sourcePoint" />
            <mxPoint x="230" y="370" as="targetPoint" />
          </mxGeometry>
        </mxCell>
        <mxCell id="TbNyWr1KSkLtgO2NTrbU-17" value="" style="endArrow=none;html=1;rounded=0;exitX=1;exitY=1;exitDx=0;exitDy=0;" parent="1" source="TbNyWr1KSkLtgO2NTrbU-9" edge="1">
          <mxGeometry relative="1" as="geometry">
            <mxPoint x="197" y="296" as="sourcePoint" />
            <mxPoint x="230" y="330" as="targetPoint" />
          </mxGeometry>
        </mxCell>
        <mxCell id="TbNyWr1KSkLtgO2NTrbU-18" value="" style="endArrow=none;html=1;rounded=0;exitX=0.5;exitY=1;exitDx=0;exitDy=0;" parent="1" source="TbNyWr1KSkLtgO2NTrbU-11" edge="1">
          <mxGeometry relative="1" as="geometry">
            <mxPoint x="227" y="256" as="sourcePoint" />
            <mxPoint x="240" y="330" as="targetPoint" />
          </mxGeometry>
        </mxCell>
        <mxCell id="TbNyWr1KSkLtgO2NTrbU-19" value="id_cliente" style="ellipse;whiteSpace=wrap;html=1;align=center;fontStyle=4;" parent="1" vertex="1">
          <mxGeometry x="95" y="260" width="100" height="30" as="geometry" />
        </mxCell>
        <mxCell id="TbNyWr1KSkLtgO2NTrbU-20" value="Transferencia&lt;br&gt;EntreCuentas" style="whiteSpace=wrap;html=1;align=center;" parent="1" vertex="1">
          <mxGeometry x="432.5" y="752" width="100" height="40" as="geometry" />
        </mxCell>
        <mxCell id="TbNyWr1KSkLtgO2NTrbU-21" value="RetiroSinCuenta" style="whiteSpace=wrap;html=1;align=center;" parent="1" vertex="1">
          <mxGeometry x="602.5" y="742" width="100" height="40" as="geometry" />
        </mxCell>
        <mxCell id="TbNyWr1KSkLtgO2NTrbU-22" value="codigo_Postal" style="ellipse;whiteSpace=wrap;html=1;align=center;" parent="1" vertex="1">
          <mxGeometry x="15" y="230" width="90" height="30" as="geometry" />
        </mxCell>
        <mxCell id="TbNyWr1KSkLtgO2NTrbU-23" value="numero_exterior" style="ellipse;whiteSpace=wrap;html=1;align=center;" parent="1" vertex="1">
          <mxGeometry x="50" y="160" width="90" height="30" as="geometry" />
        </mxCell>
        <mxCell id="TbNyWr1KSkLtgO2NTrbU-24" value="calle" style="ellipse;whiteSpace=wrap;html=1;align=center;" parent="1" vertex="1">
          <mxGeometry x="105" y="120" width="90" height="30" as="geometry" />
        </mxCell>
        <mxCell id="TbNyWr1KSkLtgO2NTrbU-25" value="numero_interior" style="ellipse;whiteSpace=wrap;html=1;align=center;" parent="1" vertex="1">
          <mxGeometry x="15" y="190" width="90" height="30" as="geometry" />
        </mxCell>
        <mxCell id="TbNyWr1KSkLtgO2NTrbU-27" value="" style="endArrow=none;html=1;rounded=0;entryX=0;entryY=0.5;entryDx=0;entryDy=0;exitX=1;exitY=0.5;exitDx=0;exitDy=0;" parent="1" source="TbNyWr1KSkLtgO2NTrbU-22" target="TbNyWr1KSkLtgO2NTrbU-9" edge="1">
          <mxGeometry relative="1" as="geometry">
            <mxPoint x="196.81980515339455" y="295.6066017177982" as="sourcePoint" />
            <mxPoint x="230" y="340" as="targetPoint" />
          </mxGeometry>
        </mxCell>
        <mxCell id="TbNyWr1KSkLtgO2NTrbU-28" value="" style="endArrow=none;html=1;rounded=0;entryX=0;entryY=0.5;entryDx=0;entryDy=0;exitX=1;exitY=0.5;exitDx=0;exitDy=0;" parent="1" source="TbNyWr1KSkLtgO2NTrbU-25" target="TbNyWr1KSkLtgO2NTrbU-9" edge="1">
          <mxGeometry relative="1" as="geometry">
            <mxPoint x="115" y="255" as="sourcePoint" />
            <mxPoint x="150" y="245" as="targetPoint" />
          </mxGeometry>
        </mxCell>
        <mxCell id="TbNyWr1KSkLtgO2NTrbU-29" value="" style="endArrow=none;html=1;rounded=0;entryX=0;entryY=0;entryDx=0;entryDy=0;exitX=1;exitY=1;exitDx=0;exitDy=0;" parent="1" source="TbNyWr1KSkLtgO2NTrbU-23" target="TbNyWr1KSkLtgO2NTrbU-9" edge="1">
          <mxGeometry relative="1" as="geometry">
            <mxPoint x="115" y="215" as="sourcePoint" />
            <mxPoint x="150" y="245" as="targetPoint" />
          </mxGeometry>
        </mxCell>
        <mxCell id="TbNyWr1KSkLtgO2NTrbU-30" value="" style="endArrow=none;html=1;rounded=0;exitX=0.678;exitY=1.067;exitDx=0;exitDy=0;exitPerimeter=0;" parent="1" source="TbNyWr1KSkLtgO2NTrbU-24" edge="1">
          <mxGeometry relative="1" as="geometry">
            <mxPoint x="137" y="196" as="sourcePoint" />
            <mxPoint x="166" y="220" as="targetPoint" />
          </mxGeometry>
        </mxCell>
        <mxCell id="TbNyWr1KSkLtgO2NTrbU-32" value="apellidoMaterno" style="ellipse;whiteSpace=wrap;html=1;align=center;" parent="1" vertex="1">
          <mxGeometry x="-40" y="330" width="90" height="30" as="geometry" />
        </mxCell>
        <mxCell id="TbNyWr1KSkLtgO2NTrbU-33" value="apellidoPaterno" style="ellipse;whiteSpace=wrap;html=1;align=center;" parent="1" vertex="1">
          <mxGeometry x="-40" y="370" width="90" height="30" as="geometry" />
        </mxCell>
        <mxCell id="TbNyWr1KSkLtgO2NTrbU-36" value="" style="endArrow=none;html=1;rounded=0;entryX=0;entryY=0.5;entryDx=0;entryDy=0;exitX=1;exitY=0.5;exitDx=0;exitDy=0;" parent="1" source="TbNyWr1KSkLtgO2NTrbU-32" edge="1">
          <mxGeometry relative="1" as="geometry">
            <mxPoint x="57" y="332" as="sourcePoint" />
            <mxPoint x="100" y="325" as="targetPoint" />
          </mxGeometry>
        </mxCell>
        <mxCell id="TbNyWr1KSkLtgO2NTrbU-37" value="" style="endArrow=none;html=1;rounded=0;entryX=0;entryY=1;entryDx=0;entryDy=0;" parent="1" source="TbNyWr1KSkLtgO2NTrbU-33" target="TbNyWr1KSkLtgO2NTrbU-7" edge="1">
          <mxGeometry relative="1" as="geometry">
            <mxPoint x="60" y="355" as="sourcePoint" />
            <mxPoint x="110" y="335" as="targetPoint" />
          </mxGeometry>
        </mxCell>
        <mxCell id="TbNyWr1KSkLtgO2NTrbU-39" value="Edad" style="ellipse;whiteSpace=wrap;html=1;align=center;dashed=1;" parent="1" vertex="1">
          <mxGeometry x="90" y="400" width="100" height="20" as="geometry" />
        </mxCell>
        <mxCell id="TbNyWr1KSkLtgO2NTrbU-40" value="Realiza" style="shape=rhombus;perimeter=rhombusPerimeter;whiteSpace=wrap;html=1;align=center;" parent="1" vertex="1">
          <mxGeometry x="512.5" y="452" width="120" height="60" as="geometry" />
        </mxCell>
        <mxCell id="TbNyWr1KSkLtgO2NTrbU-41" value="" style="endArrow=none;html=1;rounded=0;exitX=0;exitY=0.5;exitDx=0;exitDy=0;" parent="1" source="TbNyWr1KSkLtgO2NTrbU-4" edge="1">
          <mxGeometry relative="1" as="geometry">
            <mxPoint x="258" y="220" as="sourcePoint" />
            <mxPoint x="320" y="350" as="targetPoint" />
          </mxGeometry>
        </mxCell>
        <mxCell id="TbNyWr1KSkLtgO2NTrbU-42" value="" style="endArrow=none;html=1;rounded=0;exitX=0;exitY=0.5;exitDx=0;exitDy=0;" parent="1" edge="1">
          <mxGeometry relative="1" as="geometry">
            <mxPoint x="530" y="349.5" as="sourcePoint" />
            <mxPoint x="485" y="349.5" as="targetPoint" />
          </mxGeometry>
        </mxCell>
        <mxCell id="TbNyWr1KSkLtgO2NTrbU-43" value="" style="endArrow=none;html=1;rounded=0;exitX=0.5;exitY=0;exitDx=0;exitDy=0;entryX=0.425;entryY=1;entryDx=0;entryDy=0;entryPerimeter=0;" parent="1" source="TbNyWr1KSkLtgO2NTrbU-40" target="TbNyWr1KSkLtgO2NTrbU-3" edge="1">
          <mxGeometry relative="1" as="geometry">
            <mxPoint x="375" y="360" as="sourcePoint" />
            <mxPoint x="330" y="360" as="targetPoint" />
          </mxGeometry>
        </mxCell>
        <mxCell id="TbNyWr1KSkLtgO2NTrbU-44" value="" style="endArrow=none;html=1;rounded=0;exitX=0.5;exitY=0;exitDx=0;exitDy=0;entryX=0.5;entryY=1;entryDx=0;entryDy=0;" parent="1" edge="1">
          <mxGeometry relative="1" as="geometry">
            <mxPoint x="572" y="542" as="sourcePoint" />
            <mxPoint x="572" y="512" as="targetPoint" />
          </mxGeometry>
        </mxCell>
        <mxCell id="TbNyWr1KSkLtgO2NTrbU-45" value="" style="endArrow=none;html=1;rounded=0;exitX=0;exitY=0.5;exitDx=0;exitDy=0;entryX=0.5;entryY=1;entryDx=0;entryDy=0;" parent="1" source="TbNyWr1KSkLtgO2NTrbU-5" edge="1">
          <mxGeometry relative="1" as="geometry">
            <mxPoint x="572" y="612" as="sourcePoint" />
            <mxPoint x="572" y="582" as="targetPoint" />
          </mxGeometry>
        </mxCell>
        <mxCell id="TbNyWr1KSkLtgO2NTrbU-46" value="" style="endArrow=none;html=1;rounded=0;exitX=0.6;exitY=0.025;exitDx=0;exitDy=0;entryX=0.767;entryY=0.683;entryDx=0;entryDy=0;exitPerimeter=0;entryPerimeter=0;" parent="1" source="TbNyWr1KSkLtgO2NTrbU-20" target="TbNyWr1KSkLtgO2NTrbU-5" edge="1">
          <mxGeometry relative="1" as="geometry">
            <mxPoint x="582.5" y="647" as="sourcePoint" />
            <mxPoint x="582" y="592" as="targetPoint" />
          </mxGeometry>
        </mxCell>
        <mxCell id="TbNyWr1KSkLtgO2NTrbU-47" value="" style="endArrow=none;html=1;rounded=0;exitX=0.5;exitY=0;exitDx=0;exitDy=0;entryX=0.5;entryY=0;entryDx=0;entryDy=0;" parent="1" source="TbNyWr1KSkLtgO2NTrbU-21" target="TbNyWr1KSkLtgO2NTrbU-5" edge="1">
          <mxGeometry relative="1" as="geometry">
            <mxPoint x="502.5" y="763" as="sourcePoint" />
            <mxPoint x="560.5" y="670" as="targetPoint" />
          </mxGeometry>
        </mxCell>
        <mxCell id="TbNyWr1KSkLtgO2NTrbU-48" value="D.T" style="text;html=1;align=center;verticalAlign=middle;resizable=0;points=[];autosize=1;strokeColor=none;fillColor=none;" parent="1" vertex="1">
          <mxGeometry x="582.5" y="610" width="40" height="30" as="geometry" />
        </mxCell>
        <mxCell id="TbNyWr1KSkLtgO2NTrbU-49" value="1:N" style="text;html=1;align=center;verticalAlign=middle;resizable=0;points=[];autosize=1;strokeColor=none;fillColor=none;" parent="1" vertex="1">
          <mxGeometry x="632.5" y="470" width="40" height="30" as="geometry" />
        </mxCell>
        <mxCell id="TbNyWr1KSkLtgO2NTrbU-50" value="1..1" style="text;html=1;align=center;verticalAlign=middle;resizable=0;points=[];autosize=1;strokeColor=none;fillColor=none;" parent="1" vertex="1">
          <mxGeometry x="572.5" y="420" width="40" height="30" as="geometry" />
        </mxCell>
        <mxCell id="TbNyWr1KSkLtgO2NTrbU-51" value="N..1" style="text;html=1;align=center;verticalAlign=middle;resizable=0;points=[];autosize=1;strokeColor=none;fillColor=none;" parent="1" vertex="1">
          <mxGeometry x="577.5" y="510" width="50" height="30" as="geometry" />
        </mxCell>
        <mxCell id="TbNyWr1KSkLtgO2NTrbU-52" value="1:N" style="text;html=1;align=center;verticalAlign=middle;resizable=0;points=[];autosize=1;strokeColor=none;fillColor=none;" parent="1" vertex="1">
          <mxGeometry x="405" y="280" width="40" height="30" as="geometry" />
        </mxCell>
        <mxCell id="TbNyWr1KSkLtgO2NTrbU-53" value="0..1" style="text;html=1;align=center;verticalAlign=middle;resizable=0;points=[];autosize=1;strokeColor=none;fillColor=none;" parent="1" vertex="1">
          <mxGeometry x="315" y="320" width="40" height="30" as="geometry" />
        </mxCell>
        <mxCell id="TbNyWr1KSkLtgO2NTrbU-54" value="N..1" style="text;html=1;align=center;verticalAlign=middle;resizable=0;points=[];autosize=1;strokeColor=none;fillColor=none;" parent="1" vertex="1">
          <mxGeometry x="475" y="328" width="50" height="30" as="geometry" />
        </mxCell>
        <mxCell id="TbNyWr1KSkLtgO2NTrbU-56" value="id_movimiento" style="ellipse;whiteSpace=wrap;html=1;align=center;fontStyle=4;" parent="1" vertex="1">
          <mxGeometry x="392.5" y="540" width="100" height="30" as="geometry" />
        </mxCell>
        <mxCell id="TbNyWr1KSkLtgO2NTrbU-57" value="tipoMovimiento" style="ellipse;whiteSpace=wrap;html=1;align=center;" parent="1" vertex="1">
          <mxGeometry x="407.5" y="580" width="90" height="30" as="geometry" />
        </mxCell>
        <mxCell id="TbNyWr1KSkLtgO2NTrbU-58" value="Monto" style="ellipse;whiteSpace=wrap;html=1;align=center;" parent="1" vertex="1">
          <mxGeometry x="657.5" y="532" width="90" height="30" as="geometry" />
        </mxCell>
        <mxCell id="TbNyWr1KSkLtgO2NTrbU-59" value="FechaMovimiento" style="ellipse;whiteSpace=wrap;html=1;align=center;" parent="1" vertex="1">
          <mxGeometry x="667.5" y="572" width="95" height="30" as="geometry" />
        </mxCell>
        <mxCell id="TbNyWr1KSkLtgO2NTrbU-61" value="" style="endArrow=none;html=1;rounded=0;exitX=1;exitY=0.5;exitDx=0;exitDy=0;entryX=0;entryY=0.25;entryDx=0;entryDy=0;" parent="1" source="TbNyWr1KSkLtgO2NTrbU-56" target="TbNyWr1KSkLtgO2NTrbU-2" edge="1">
          <mxGeometry relative="1" as="geometry">
            <mxPoint x="494.48" y="463.99" as="sourcePoint" />
            <mxPoint x="532.5" y="422" as="targetPoint" />
          </mxGeometry>
        </mxCell>
        <mxCell id="TbNyWr1KSkLtgO2NTrbU-62" value="" style="endArrow=none;html=1;rounded=0;exitX=0.944;exitY=0.067;exitDx=0;exitDy=0;entryX=0;entryY=0.5;entryDx=0;entryDy=0;exitPerimeter=0;" parent="1" source="TbNyWr1KSkLtgO2NTrbU-57" target="TbNyWr1KSkLtgO2NTrbU-2" edge="1">
          <mxGeometry relative="1" as="geometry">
            <mxPoint x="502.5" y="565" as="sourcePoint" />
            <mxPoint x="532.5" y="562" as="targetPoint" />
          </mxGeometry>
        </mxCell>
        <mxCell id="TbNyWr1KSkLtgO2NTrbU-64" value="" style="endArrow=none;html=1;rounded=0;exitX=0;exitY=0.5;exitDx=0;exitDy=0;entryX=1;entryY=0.75;entryDx=0;entryDy=0;" parent="1" source="TbNyWr1KSkLtgO2NTrbU-59" target="TbNyWr1KSkLtgO2NTrbU-2" edge="1">
          <mxGeometry relative="1" as="geometry">
            <mxPoint x="674.5" y="629" as="sourcePoint" />
            <mxPoint x="632.5" y="592" as="targetPoint" />
          </mxGeometry>
        </mxCell>
        <mxCell id="TbNyWr1KSkLtgO2NTrbU-65" value="" style="endArrow=none;html=1;rounded=0;exitX=0;exitY=0.5;exitDx=0;exitDy=0;entryX=1;entryY=0.25;entryDx=0;entryDy=0;" parent="1" source="TbNyWr1KSkLtgO2NTrbU-58" target="TbNyWr1KSkLtgO2NTrbU-2" edge="1">
          <mxGeometry relative="1" as="geometry">
            <mxPoint x="677.5" y="597" as="sourcePoint" />
            <mxPoint x="632.5" y="582" as="targetPoint" />
          </mxGeometry>
        </mxCell>
        <mxCell id="TbNyWr1KSkLtgO2NTrbU-76" value="" style="endArrow=none;html=1;rounded=0;" parent="1" edge="1">
          <mxGeometry relative="1" as="geometry">
            <mxPoint x="310" y="580" as="sourcePoint" />
            <mxPoint x="430" y="750" as="targetPoint" />
          </mxGeometry>
        </mxCell>
        <mxCell id="TbNyWr1KSkLtgO2NTrbU-79" value="" style="endArrow=none;html=1;rounded=0;entryX=1;entryY=1;entryDx=0;entryDy=0;" parent="1" source="6UIeVW8Tn3iIhj5uyoMt-12" target="TbNyWr1KSkLtgO2NTrbU-21" edge="1">
          <mxGeometry relative="1" as="geometry">
            <mxPoint x="727.5" y="787" as="sourcePoint" />
            <mxPoint x="517.5" y="802" as="targetPoint" />
          </mxGeometry>
        </mxCell>
        <mxCell id="TbNyWr1KSkLtgO2NTrbU-82" value="numero_cuenta" style="ellipse;whiteSpace=wrap;html=1;align=center;fontStyle=4;" parent="1" vertex="1">
          <mxGeometry x="610" y="280" width="100" height="30" as="geometry" />
        </mxCell>
        <mxCell id="TbNyWr1KSkLtgO2NTrbU-87" value="saldo" style="ellipse;whiteSpace=wrap;html=1;align=center;" parent="1" vertex="1">
          <mxGeometry x="497.5" y="270" width="90" height="30" as="geometry" />
        </mxCell>
        <mxCell id="TbNyWr1KSkLtgO2NTrbU-89" value="" style="endArrow=none;html=1;rounded=0;entryX=0.36;entryY=-0.05;entryDx=0;entryDy=0;entryPerimeter=0;" parent="1" target="TbNyWr1KSkLtgO2NTrbU-3" edge="1">
          <mxGeometry relative="1" as="geometry">
            <mxPoint x="550" y="300" as="sourcePoint" />
            <mxPoint x="310" y="610" as="targetPoint" />
          </mxGeometry>
        </mxCell>
        <mxCell id="TbNyWr1KSkLtgO2NTrbU-90" value="" style="endArrow=none;html=1;rounded=0;exitX=0;exitY=0.5;exitDx=0;exitDy=0;entryX=1;entryY=1;entryDx=0;entryDy=0;" parent="1" target="TbNyWr1KSkLtgO2NTrbU-3" edge="1">
          <mxGeometry relative="1" as="geometry">
            <mxPoint x="650" y="375" as="sourcePoint" />
            <mxPoint x="608" y="387" as="targetPoint" />
          </mxGeometry>
        </mxCell>
        <mxCell id="TbNyWr1KSkLtgO2NTrbU-91" value="" style="endArrow=none;html=1;rounded=0;exitX=0.4;exitY=1;exitDx=0;exitDy=0;entryX=1;entryY=0;entryDx=0;entryDy=0;exitPerimeter=0;" parent="1" source="TbNyWr1KSkLtgO2NTrbU-82" target="TbNyWr1KSkLtgO2NTrbU-3" edge="1">
          <mxGeometry relative="1" as="geometry">
            <mxPoint x="660" y="385" as="sourcePoint" />
            <mxPoint x="640" y="380" as="targetPoint" />
          </mxGeometry>
        </mxCell>
        <mxCell id="EoBIIH6gA8yZgQgrtYpI-1" value="contraseña" style="ellipse;whiteSpace=wrap;html=1;align=center;" parent="1" vertex="1">
          <mxGeometry x="80" y="350" width="90" height="30" as="geometry" />
        </mxCell>
        <mxCell id="EoBIIH6gA8yZgQgrtYpI-2" value="" style="endArrow=none;html=1;rounded=0;exitX=0.956;exitY=0.267;exitDx=0;exitDy=0;exitPerimeter=0;" parent="1" source="EoBIIH6gA8yZgQgrtYpI-1" edge="1">
          <mxGeometry relative="1" as="geometry">
            <mxPoint x="169" y="338" as="sourcePoint" />
            <mxPoint x="220" y="360" as="targetPoint" />
          </mxGeometry>
        </mxCell>
        <mxCell id="6UIeVW8Tn3iIhj5uyoMt-2" value="estado" style="ellipse;whiteSpace=wrap;html=1;align=center;" vertex="1" parent="1">
          <mxGeometry x="582.5" y="842" width="95" height="30" as="geometry" />
        </mxCell>
        <mxCell id="6UIeVW8Tn3iIhj5uyoMt-3" value="" style="endArrow=none;html=1;rounded=0;fontSize=12;startSize=8;endSize=8;curved=1;entryX=0;entryY=1;entryDx=0;entryDy=0;" edge="1" parent="1" source="6UIeVW8Tn3iIhj5uyoMt-2" target="TbNyWr1KSkLtgO2NTrbU-21">
          <mxGeometry width="50" height="50" relative="1" as="geometry">
            <mxPoint x="350" y="550" as="sourcePoint" />
            <mxPoint x="400" y="500" as="targetPoint" />
          </mxGeometry>
        </mxCell>
        <mxCell id="6UIeVW8Tn3iIhj5uyoMt-7" value="Necesita" style="shape=rhombus;perimeter=rhombusPerimeter;whiteSpace=wrap;html=1;align=center;" vertex="1" parent="1">
          <mxGeometry x="245" y="520" width="120" height="60" as="geometry" />
        </mxCell>
        <mxCell id="6UIeVW8Tn3iIhj5uyoMt-8" value="1:1" style="text;html=1;align=center;verticalAlign=middle;resizable=0;points=[];autosize=1;strokeColor=none;fillColor=none;fontSize=16;" vertex="1" parent="1">
          <mxGeometry x="315" y="568" width="50" height="30" as="geometry" />
        </mxCell>
        <mxCell id="6UIeVW8Tn3iIhj5uyoMt-9" value="1..1" style="text;html=1;align=center;verticalAlign=middle;resizable=0;points=[];autosize=1;strokeColor=none;fillColor=none;fontSize=16;" vertex="1" parent="1">
          <mxGeometry x="425" y="708" width="50" height="30" as="geometry" />
        </mxCell>
        <mxCell id="6UIeVW8Tn3iIhj5uyoMt-10" value="" style="endArrow=none;html=1;rounded=0;exitX=1;exitY=0;exitDx=0;exitDy=0;entryX=0;entryY=1;entryDx=0;entryDy=0;" edge="1" parent="1" source="6UIeVW8Tn3iIhj5uyoMt-7" target="TbNyWr1KSkLtgO2NTrbU-3">
          <mxGeometry relative="1" as="geometry">
            <mxPoint x="320" y="590" as="sourcePoint" />
            <mxPoint x="440" y="760" as="targetPoint" />
          </mxGeometry>
        </mxCell>
        <mxCell id="6UIeVW8Tn3iIhj5uyoMt-11" value="1..1" style="text;html=1;align=center;verticalAlign=middle;resizable=0;points=[];autosize=1;strokeColor=none;fillColor=none;fontSize=16;" vertex="1" parent="1">
          <mxGeometry x="375" y="430" width="50" height="30" as="geometry" />
        </mxCell>
        <mxCell id="6UIeVW8Tn3iIhj5uyoMt-12" value="contraseña" style="ellipse;whiteSpace=wrap;html=1;align=center;dashed=1;fontSize=16;" vertex="1" parent="1">
          <mxGeometry x="710" y="810" width="100" height="40" as="geometry" />
        </mxCell>
        <mxCell id="6UIeVW8Tn3iIhj5uyoMt-13" value="folio" style="ellipse;whiteSpace=wrap;html=1;align=center;dashed=1;fontSize=16;" vertex="1" parent="1">
          <mxGeometry x="720" y="730" width="100" height="40" as="geometry" />
        </mxCell>
        <mxCell id="6UIeVW8Tn3iIhj5uyoMt-14" value="" style="endArrow=none;html=1;rounded=0;entryX=1;entryY=0.5;entryDx=0;entryDy=0;exitX=0.03;exitY=0.8;exitDx=0;exitDy=0;exitPerimeter=0;" edge="1" parent="1" source="6UIeVW8Tn3iIhj5uyoMt-13" target="TbNyWr1KSkLtgO2NTrbU-21">
          <mxGeometry relative="1" as="geometry">
            <mxPoint x="749" y="822" as="sourcePoint" />
            <mxPoint x="713" y="792" as="targetPoint" />
          </mxGeometry>
        </mxCell>
        <mxCell id="6UIeVW8Tn3iIhj5uyoMt-15" value="fecha_apertura&lt;br&gt;" style="ellipse;whiteSpace=wrap;html=1;align=center;dashed=1;fontSize=16;" vertex="1" parent="1">
          <mxGeometry x="647.5" y="350" width="122.5" height="48" as="geometry" />
        </mxCell>
      </root>
    </mxGraphModel>
  </diagram>
</mxfile>
